# xmcd
#
# Track frame offsets: 
#        150
#        16057
#        34135
#        54655
#        72152
#        91941
#        103412
#        120107
#        131552
#        150936
#        166215
#        180922
#        192445
#        206296
#        219552
#        230004
#        240896
#        250594
#        265986
#        281968
#        292928
#        301998
#        319038
#        344253
#
# Disc length: 4748 seconds
#
# Revision: 0
# Processed by: cddbd v1.4PL0 Copyright (c) Steve Scherf et al.
# Submitted via: ExactAudioCopy v0.90a11
#
DISCID=45128a18
DTITLE=Various Artist - Compilation III
DYEAR=1900
DGENRE=
TTITLE0=Garth Brooks: In Pieces (The Limited Series) 03 American Honky
TTITLE0=Tonk Bar Association
TTITLE1=Garth Brooks: In Pieces (The Limited Series) 05 Kickin And Scr
TTITLE1=eamin
TTITLE2=Garth Brooks: In Pieces (The Limited Series) 07 Ain't Going Do
TTITLE2=wn 'Til The Sun Comes Up
TTITLE3=Garth Brooks: Ropin' The Wind (The Limited Series) 02 Rodeo
TTITLE4=Garth Brooks: The Chase (The Limited Series) 06 Dixie Chicken
TTITLE5=Garth Brooks: The Chase (The Limited Series) 05 Walking After 
TTITLE5=Midnight
TTITLE6=Garth Brooks: No Fences 01 The Thunder Rolls
TTITLE7=Garth Brooks: No Fences 03 Two Of A Kind Workin On A Full Hous
TTITLE7=e
TTITLE8=Garth Brooks: No Fences 05 Friends In Low Places
TTITLE9=Garth Brooks: No Fences 08 Unanswered Prayers
TTITLE10=Garth Brooks: No Fences 10 Mr. Blue
TTITLE11=Garth Brooks: The Limited Series 01 Not Counting You
TTITLE12=Garth Brooks: The Limited Series 04 Uptown Down Home Good Ol'
TTITLE12=Boy
TTITLE13=Garth Brooks: The Limited Series 07 Much Too Young To Feel Th
TTITLE13=is Damn Old
TTITLE14=Garth Brooks: The Limited Series 09 Nobody Gets Off In This T
TTITLE14=own
TTITLE15=The Zombies: Greatest Hits 01 She's Not There
TTITLE16=The Zombies: Greatest Hits 05 Tell Her No
TTITLE17=The Zombies: Greatest Hits 11 I Love You
TTITLE18=The Zombies: Greatest Hits 14 Time Of The Season
TTITLE19=The Yardbirds: Boom Boom
TTITLE20=The Yardbirds: I Ain't Got You
TTITLE21=Blues Breakers: John Mayall,  Eric Clapton, Bernard Jenkins: 
TTITLE21=Title Unknown
TTITLE22=Dire Straits: Dire Straits Sultans Of Swing
TTITLE23=Road to Bali: Bob Hope, Bing Crosby, Dorothy Lamour Merry_Go_
TTITLE23=Run A Round
EXTD=
EXTT0=
EXTT1=
EXTT2=
EXTT3=
EXTT4=
EXTT5=
EXTT6=
EXTT7=
EXTT8=
EXTT9=
EXTT10=
EXTT11=
EXTT12=
EXTT13=
EXTT14=
EXTT15=
EXTT16=
EXTT17=
EXTT18=
EXTT19=
EXTT20=
EXTT21=
EXTT22=
EXTT23=
PLAYORDER=
